<?xml version="1.0" encoding="UTF-8"?>
<svg id="Layer_2" data-name="Layer 2" xmlns="http://www.w3.org/2000/svg" viewBox="0 0 2357.17 184.39">
  <defs>
    <style>
      .cls-1 {
        fill: #0482c1;
      }

      .cls-2 {
        fill: #171717;
      }
    </style>
  </defs>
  <g id="Layer_1-2" data-name="Layer 1">
    <g>
      <g>
        <path class="cls-2" d="m62.21,3.43H0v144.2h62.21c21.27,0,37.7-6.93,49.28-20.8,10.77-12.93,16.16-30.29,16.16-52.11,0-23.16-6.26-41-18.78-53.52C97.28,9.36,81.73,3.43,62.21,3.43Zm22.62,107.85c-6.33,6.46-14.61,9.69-24.84,9.69h-28.27V30.09h22.62c15.08,0,25.98,4.31,32.72,12.93,5.92,7.67,8.89,19.26,8.89,34.74s-3.71,25.99-11.11,33.53Z"/>
        <path class="cls-2" d="m240.34,70.08c0-19.79-15.28-29.69-45.85-29.69-13.47,0-24.37,2.49-32.72,7.47-10.1,5.93-15.55,15.08-16.36,27.47h28.68c.94-10.5,7.27-15.75,18.98-15.75,5.92,0,10.23.81,12.93,2.42,3.77,2.16,5.66,6.06,5.66,11.71,0,5.12-3.43,8.55-10.3,10.3-.27.14-8.15,1.28-23.63,3.43-10.91,1.61-19.05,4.24-24.44,7.88-7.41,5.25-11.11,13.2-11.11,23.83s3.43,18.11,10.3,23.63c6.33,5.11,14.74,7.67,25.25,7.67,15.21,0,26.93-4.31,35.14-12.93.13,2.96.81,6.33,2.02,10.1h29.08c-2.42-3.9-3.64-11.64-3.64-23.23v-54.33Zm-28.68,37.16c0,16.02-7.74,24.03-23.23,24.03-11.71,0-17.57-4.44-17.57-13.33,0-6.06,2.83-10.37,8.48-12.93,2.83-1.21,8.62-2.49,17.37-3.84,7.67-1.08,12.65-2.63,14.95-4.64v10.7Z"/>
        <path class="cls-2" d="m298.9,11.91h-28.68v31.31h-17.37v19.19h17.37v61.6c0,16.56,10.97,24.84,32.92,24.84,7.13,0,12.72-.34,16.76-1.01v-22.42c-2.7.54-5.65.81-8.89.81-4.85,0-8.08-.81-9.69-2.42-1.62-1.62-2.42-4.85-2.42-9.69v-51.7h21v-19.19h-21V11.91Z"/>
        <path class="cls-2" d="m427.35,70.08c0-19.79-15.28-29.69-45.85-29.69-13.47,0-24.37,2.49-32.72,7.47-10.1,5.93-15.55,15.08-16.36,27.47h28.68c.94-10.5,7.27-15.75,18.98-15.75,5.92,0,10.23.81,12.93,2.42,3.77,2.16,5.66,6.06,5.66,11.71,0,5.12-3.43,8.55-10.3,10.3-.27.14-8.15,1.28-23.63,3.43-10.91,1.61-19.05,4.24-24.44,7.88-7.41,5.25-11.11,13.2-11.11,23.83s3.43,18.11,10.3,23.63c6.33,5.11,14.74,7.67,25.25,7.67,15.21,0,26.93-4.31,35.14-12.93.13,2.96.81,6.33,2.02,10.1h29.08c-2.42-3.9-3.64-11.64-3.64-23.23v-54.33Zm-28.68,37.16c0,16.02-7.74,24.03-23.23,24.03-11.71,0-17.57-4.44-17.57-13.33,0-6.06,2.83-10.37,8.48-12.93,2.83-1.21,8.62-2.49,17.37-3.84,7.67-1.08,12.65-2.63,14.95-4.64v10.7Z"/>
        <path class="cls-2" d="m547.31,72.5c-5.52-3.64-13.94-6.87-25.25-9.69-19.39-4.98-31.1-8.41-35.14-10.3-5.25-2.42-7.88-6.26-7.88-11.51,0-5.52,2.35-9.76,7.07-12.72,4.04-2.42,8.95-3.64,14.74-3.64,18.18,0,27.67,7.27,28.48,21.81h30.7c0-15.62-5.86-27.53-17.57-35.75-10.23-7.13-23.63-10.7-40.19-10.7-14.27,0-26.53,3.57-36.76,10.7-11.45,8.08-17.17,19.05-17.17,32.92,0,15.35,7.4,26.59,22.22,33.73,2.02,1.08,15.82,5.25,41.4,12.52,14.81,4.17,22.22,10.37,22.22,18.58,0,6.6-3.3,11.45-9.9,14.54-4.85,2.29-10.91,3.43-18.18,3.43-9.29,0-16.7-2.02-22.22-6.06-6.46-4.71-9.69-11.58-9.69-20.6h-30.7c-.14,16.7,6.06,29.69,18.58,38.98,11.17,8.22,25.45,12.32,42.82,12.32,18.98,0,33.86-4.37,44.63-13.13,10.23-8.35,15.35-19.39,15.35-33.12s-5.86-24.77-17.57-32.31Z"/>
        <path class="cls-2" d="m639.41,40.39c-14.14,0-24.51,5.39-31.1,16.16h-.4v-13.33h-27.26v141.17h28.68v-49.68h.4c7,10.5,17.43,15.75,31.3,15.75s25.98-5.52,34.33-16.56c7.67-9.96,11.51-22.42,11.51-37.36,0-16.02-3.84-29.08-11.51-39.18-8.48-11.31-20.47-16.96-35.95-16.96Zm-6.06,88.46c-8.62,0-15.08-3.43-19.39-10.3-3.77-5.79-5.66-13.4-5.66-22.82s1.82-17.3,5.45-23.23c4.17-7,10.64-10.5,19.39-10.5s14.95,3.57,19.39,10.7c3.77,5.93,5.65,13.6,5.65,23.02,0,22.08-8.28,33.12-24.84,33.12Z"/>
        <path class="cls-2" d="m797.74,70.08c0-19.79-15.28-29.69-45.84-29.69-13.47,0-24.37,2.49-32.72,7.47-10.1,5.93-15.55,15.08-16.36,27.47h28.68c.94-10.5,7.27-15.75,18.98-15.75,5.92,0,10.23.81,12.93,2.42,3.77,2.16,5.66,6.06,5.66,11.71,0,5.12-3.43,8.55-10.3,10.3-.27.14-8.15,1.28-23.63,3.43-10.91,1.61-19.05,4.24-24.44,7.88-7.41,5.25-11.11,13.2-11.11,23.83s3.43,18.11,10.3,23.63c6.33,5.11,14.74,7.67,25.25,7.67,15.21,0,26.93-4.31,35.14-12.93.13,2.96.81,6.33,2.02,10.1h29.08c-2.42-3.9-3.64-11.64-3.64-23.23v-54.33Zm-28.68,37.16c0,16.02-7.74,24.03-23.23,24.03-11.71,0-17.57-4.44-17.57-13.33,0-6.06,2.83-10.37,8.48-12.93,2.83-1.21,8.62-2.49,17.37-3.84,7.68-1.08,12.65-2.63,14.95-4.64v10.7Z"/>
        <path class="cls-2" d="m869.24,128.85c-8.21,0-14.41-3.64-18.58-10.91-3.5-5.92-5.25-13.26-5.25-22.01s1.75-16.63,5.25-22.82c4.44-7.4,10.84-11.11,19.19-11.11,12.25,0,19.32,5.99,21.21,17.98h28.07c-.81-12.65-6.13-22.62-15.96-29.89-8.89-6.46-19.93-9.69-33.12-9.69-16.56,0-29.69,5.39-39.38,16.16-9.29,10.23-13.94,23.7-13.94,40.39,0,15.75,4.88,28.61,14.64,38.57,9.76,9.97,22.45,14.95,38.07,14.95,13.87,0,25.28-3.7,34.23-11.11,8.95-7.4,14.31-17.98,16.06-31.71h-27.67c-2.02,14.14-9.63,21.21-22.82,21.21Z"/>
        <path class="cls-2" d="m984.15,40.39c-15.75,0-28.58,5.22-38.47,15.65-9.9,10.44-14.84,23.6-14.84,39.48s4.81,29.52,14.44,39.69c9.63,10.17,22.59,15.25,38.88,15.25,24.91,0,41.2-11.71,48.87-35.14h-25.24c-.94,3.5-3.5,6.53-7.67,9.09-4.44,2.96-9.43,4.44-14.95,4.44-16.29,0-24.84-8.82-25.65-26.46h75.33c1.08-17.1-2.7-31.44-11.31-43.02-9.29-12.65-22.42-18.98-39.38-18.98Zm-24.64,43.83c.27-5.38,2.02-10.1,5.25-14.14,4.31-5.38,10.5-8.08,18.58-8.08,12.52,0,20.13,7.41,22.82,22.22h-46.65Z"/>
        <path class="cls-2" d="m1149.69,28.77l-53.49,118.86h22.75l11.77-27.51h59.45l11.81,27.51h23.09l-53.66-118.86h-21.73Zm-11.55,74.04l22.26-52.02,22.34,52.02h-44.6Z"/>
        <path class="cls-2" d="m1323.65,58.15c3.79-3.73,8.26-6.62,13.41-8.66,5.15-2.04,10.84-3.06,17.07-3.06s12,1.16,17.32,3.48c5.32,2.32,10.13,5.8,14.43,10.44l14.26-13.41c-5.55-6.56-12.34-11.52-20.38-14.86-8.04-3.34-16.93-5.01-26.66-5.01-9.17,0-17.6,1.5-25.3,4.5-7.7,3-14.43,7.25-20.21,12.74-5.77,5.49-10.25,11.97-13.41,19.44-3.17,7.47-4.76,15.62-4.76,24.45s1.58,16.98,4.76,24.45c3.17,7.47,7.61,13.95,13.33,19.44,5.71,5.49,12.45,9.74,20.21,12.74,7.75,3,16.16,4.5,25.22,4.5,9.85,0,18.79-1.7,26.83-5.09,8.04-3.4,14.83-8.32,20.38-14.77l-14.26-13.58c-4.3,4.75-9.11,8.29-14.43,10.61-5.32,2.32-11.1,3.48-17.32,3.48s-11.91-1.02-17.07-3.06c-5.15-2.04-9.62-4.92-13.41-8.66-3.79-3.74-6.74-8.15-8.83-13.25-2.1-5.09-3.14-10.7-3.14-16.81s1.05-11.72,3.14-16.81c2.09-5.09,5.04-9.51,8.83-13.25Z"/>
        <path class="cls-2" d="m1514.94,28.77l-53.49,118.86h22.75l11.77-27.51h59.45l11.81,27.51h23.09l-53.66-118.86h-21.73Zm-11.55,74.04l22.26-52.02,22.34,52.02h-44.6Z"/>
        <path class="cls-2" d="m1750.8,36.24c-9.74-4.98-21.06-7.47-33.96-7.47h-51.96v118.86h51.96c12.91,0,24.22-2.49,33.96-7.47,9.73-4.98,17.32-11.91,22.75-20.8,5.43-8.89,8.15-19.27,8.15-31.16s-2.72-22.41-8.15-31.24c-5.43-8.83-13.02-15.73-22.75-20.72Zm3.31,73.36c-3.57,6.11-8.6,10.87-15.11,14.26-6.51,3.4-14.24,5.09-23.18,5.09h-28.87V47.45h28.87c8.94,0,16.67,1.7,23.18,5.09,6.51,3.4,11.55,8.12,15.11,14.18,3.57,6.06,5.35,13.22,5.35,21.48s-1.78,15.28-5.35,21.4Z"/>
        <polygon class="cls-2" points="1886.64 96.35 1944.04 96.35 1944.04 78.18 1886.64 78.18 1886.64 47.28 1951.34 47.28 1951.34 28.77 1864.57 28.77 1864.57 147.63 1953.71 147.63 1953.71 129.13 1886.64 129.13 1886.64 96.35"/>
        <polygon class="cls-2" points="2149.5 28.77 2103.11 107.54 2055.94 28.77 2037.77 28.77 2037.77 147.63 2058.83 147.63 2058.83 69.91 2097.88 134.05 2107.73 134.05 2146.8 68.88 2146.95 147.63 2167.84 147.63 2167.67 28.77 2149.5 28.77"/>
        <polygon class="cls-2" points="2357.17 28.77 2335.44 28.77 2300.31 86.6 2265.48 28.77 2241.87 28.77 2288.57 106.03 2288.57 147.63 2310.65 147.63 2310.65 105.75 2357.17 28.77"/>
      </g>
      <polygon class="cls-1" points="78.46 75.53 49.18 53.87 49.18 97.2 78.46 75.53"/>
    </g>
  </g>
</svg>