<svg width="2358" height="185" viewBox="0 0 2358 185" fill="none" xmlns="http://www.w3.org/2000/svg">
<g clip-path="url(#clip0_278_2372)">
<path d="M62.21 3.43005H0V147.63H62.21C83.48 147.63 99.91 140.7 111.49 126.83C122.26 113.9 127.65 96.5401 127.65 74.7201C127.65 51.5601 121.39 33.7201 108.87 21.2001C97.28 9.36005 81.73 3.43005 62.21 3.43005ZM84.83 111.28C78.5 117.74 70.22 120.97 59.99 120.97H31.72V30.0901H54.34C69.42 30.0901 80.32 34.4001 87.06 43.0201C92.98 50.6901 95.95 62.2801 95.95 77.7601C95.95 93.2401 92.24 103.75 84.84 111.29L84.83 111.28Z" fill="white"/>
<path d="M240.34 70.08C240.34 50.29 225.06 40.39 194.49 40.39C181.02 40.39 170.12 42.88 161.77 47.86C151.67 53.79 146.22 62.94 145.41 75.33H174.09C175.03 64.83 181.36 59.58 193.07 59.58C198.99 59.58 203.3 60.39 206 62C209.77 64.16 211.66 68.06 211.66 73.71C211.66 78.83 208.23 82.26 201.36 84.01C201.09 84.15 193.21 85.29 177.73 87.44C166.82 89.05 158.68 91.68 153.29 95.32C145.88 100.57 142.18 108.52 142.18 119.15C142.18 129.78 145.61 137.26 152.48 142.78C158.81 147.89 167.22 150.45 177.73 150.45C192.94 150.45 204.66 146.14 212.87 137.52C213 140.48 213.68 143.85 214.89 147.62H243.97C241.55 143.72 240.33 135.98 240.33 124.39V70.06L240.34 70.08ZM211.66 107.24C211.66 123.26 203.92 131.27 188.43 131.27C176.72 131.27 170.86 126.83 170.86 117.94C170.86 111.88 173.69 107.57 179.34 105.01C182.17 103.8 187.96 102.52 196.71 101.17C204.38 100.09 209.36 98.54 211.66 96.53V107.23V107.24Z" fill="white"/>
<path d="M298.9 11.91H270.22V43.22H252.85V62.41H270.22V124.01C270.22 140.57 281.19 148.85 303.14 148.85C310.27 148.85 315.86 148.51 319.9 147.84V125.42C317.2 125.96 314.25 126.23 311.01 126.23C306.16 126.23 302.93 125.42 301.32 123.81C299.7 122.19 298.9 118.96 298.9 114.12V62.42H319.9V43.23H298.9V11.91Z" fill="white"/>
<path d="M427.349 70.08C427.349 50.29 412.069 40.39 381.499 40.39C368.029 40.39 357.129 42.88 348.779 47.86C338.679 53.79 333.229 62.94 332.419 75.33H361.099C362.039 64.83 368.369 59.58 380.079 59.58C385.999 59.58 390.309 60.39 393.009 62C396.779 64.16 398.669 68.06 398.669 73.71C398.669 78.83 395.239 82.26 388.369 84.01C388.099 84.15 380.219 85.29 364.739 87.44C353.829 89.05 345.689 91.68 340.299 95.32C332.889 100.57 329.189 108.52 329.189 119.15C329.189 129.78 332.619 137.26 339.489 142.78C345.819 147.89 354.229 150.45 364.739 150.45C379.949 150.45 391.669 146.14 399.879 137.52C400.009 140.48 400.689 143.85 401.899 147.62H430.979C428.559 143.72 427.339 135.98 427.339 124.39V70.06L427.349 70.08ZM398.669 107.24C398.669 123.26 390.929 131.27 375.439 131.27C363.729 131.27 357.869 126.83 357.869 117.94C357.869 111.88 360.699 107.57 366.349 105.01C369.179 103.8 374.969 102.52 383.719 101.17C391.389 100.09 396.369 98.54 398.669 96.53V107.23V107.24Z" fill="white"/>
<path d="M547.311 72.5C541.791 68.86 533.371 65.63 522.061 62.81C502.671 57.83 490.961 54.4 486.921 52.51C481.671 50.09 479.041 46.25 479.041 41C479.041 35.48 481.391 31.24 486.111 28.28C490.151 25.86 495.061 24.64 500.851 24.64C519.031 24.64 528.521 31.91 529.331 46.45H560.031C560.031 30.83 554.171 18.92 542.461 10.7C532.231 3.57 518.831 0 502.271 0C488.001 0 475.741 3.57 465.511 10.7C454.061 18.78 448.341 29.75 448.341 43.62C448.341 58.97 455.741 70.21 470.561 77.35C472.581 78.43 486.381 82.6 511.961 89.87C526.771 94.04 534.181 100.24 534.181 108.45C534.181 115.05 530.881 119.9 524.281 122.99C519.431 125.28 513.371 126.42 506.101 126.42C496.811 126.42 489.401 124.4 483.881 120.36C477.421 115.65 474.191 108.78 474.191 99.76H443.491C443.351 116.46 449.551 129.45 462.071 138.74C473.241 146.96 487.521 151.06 504.891 151.06C523.871 151.06 538.751 146.69 549.521 137.93C559.751 129.58 564.871 118.54 564.871 104.81C564.871 91.08 559.011 80.04 547.301 72.5H547.311Z" fill="white"/>
<path d="M639.41 40.39C625.27 40.39 614.9 45.78 608.31 56.55H607.91V43.22H580.65V184.39H609.33V134.71H609.73C616.73 145.21 627.16 150.46 641.03 150.46C654.9 150.46 667.01 144.94 675.36 133.9C683.03 123.94 686.87 111.48 686.87 96.54C686.87 80.52 683.03 67.46 675.36 57.36C666.88 46.05 654.89 40.4 639.41 40.4V40.39ZM633.35 128.85C624.73 128.85 618.27 125.42 613.96 118.55C610.19 112.76 608.3 105.15 608.3 95.73C608.3 86.31 610.12 78.43 613.75 72.5C617.92 65.5 624.39 62 633.14 62C641.89 62 648.09 65.57 652.53 72.7C656.3 78.63 658.18 86.3 658.18 95.72C658.18 117.8 649.9 128.84 633.34 128.84L633.35 128.85Z" fill="white"/>
<path d="M797.74 70.08C797.74 50.29 782.46 40.39 751.9 40.39C738.43 40.39 727.53 42.88 719.18 47.86C709.08 53.79 703.63 62.94 702.82 75.33H731.5C732.44 64.83 738.77 59.58 750.48 59.58C756.4 59.58 760.71 60.39 763.41 62C767.18 64.16 769.07 68.06 769.07 73.71C769.07 78.83 765.64 82.26 758.77 84.01C758.5 84.15 750.62 85.29 735.14 87.44C724.23 89.05 716.09 91.68 710.7 95.32C703.29 100.57 699.59 108.52 699.59 119.15C699.59 129.78 703.02 137.26 709.89 142.78C716.22 147.89 724.63 150.45 735.14 150.45C750.35 150.45 762.07 146.14 770.28 137.52C770.41 140.48 771.09 143.85 772.3 147.62H801.38C798.96 143.72 797.74 135.98 797.74 124.39V70.06V70.08ZM769.06 107.24C769.06 123.26 761.32 131.27 745.83 131.27C734.12 131.27 728.26 126.83 728.26 117.94C728.26 111.88 731.09 107.57 736.74 105.01C739.57 103.8 745.36 102.52 754.11 101.17C761.79 100.09 766.76 98.54 769.06 96.53V107.23V107.24Z" fill="white"/>
<path d="M869.24 128.85C861.03 128.85 854.83 125.21 850.66 117.94C847.16 112.02 845.41 104.68 845.41 95.93C845.41 87.18 847.16 79.3 850.66 73.11C855.1 65.71 861.5 62 869.85 62C882.1 62 889.17 67.99 891.06 79.98H919.13C918.32 67.33 913 57.36 903.17 50.09C894.28 43.63 883.24 40.4 870.05 40.4C853.49 40.4 840.36 45.79 830.67 56.56C821.38 66.79 816.73 80.26 816.73 96.95C816.73 112.7 821.61 125.56 831.37 135.52C841.13 145.49 853.82 150.47 869.44 150.47C883.31 150.47 894.72 146.77 903.67 139.36C912.62 131.96 917.98 121.38 919.73 107.65H892.06C890.04 121.79 882.43 128.86 869.24 128.86V128.85Z" fill="white"/>
<path d="M984.15 40.39C968.4 40.39 955.57 45.61 945.68 56.04C935.78 66.48 930.84 79.64 930.84 95.52C930.84 111.4 935.65 125.04 945.28 135.21C954.91 145.38 967.87 150.46 984.16 150.46C1009.07 150.46 1025.36 138.75 1033.03 115.32H1007.79C1006.85 118.82 1004.29 121.85 1000.12 124.41C995.68 127.37 990.69 128.85 985.17 128.85C968.88 128.85 960.33 120.03 959.52 102.39H1034.85C1035.93 85.29 1032.15 70.95 1023.54 59.37C1014.25 46.72 1001.12 40.39 984.16 40.39H984.15ZM959.51 84.22C959.78 78.84 961.53 74.12 964.76 70.08C969.07 64.7 975.26 62 983.34 62C995.86 62 1003.47 69.41 1006.16 84.22H959.51Z" fill="white"/>
<path d="M1149.69 28.77L1096.2 147.63H1118.95L1130.72 120.12H1190.17L1201.98 147.63H1225.07L1171.41 28.77H1149.68H1149.69ZM1138.14 102.81L1160.4 50.79L1182.74 102.81H1138.14Z" fill="white"/>
<path d="M1323.65 58.1499C1327.44 54.4199 1331.91 51.5299 1337.06 49.4899C1342.21 47.4499 1347.9 46.4299 1354.13 46.4299C1360.36 46.4299 1366.13 47.5899 1371.45 49.9099C1376.77 52.2299 1381.58 55.7099 1385.88 60.3499L1400.14 46.9399C1394.59 40.3799 1387.8 35.4199 1379.76 32.0799C1371.72 28.7399 1362.83 27.0699 1353.1 27.0699C1343.93 27.0699 1335.5 28.5699 1327.8 31.5699C1320.1 34.5699 1313.37 38.8199 1307.59 44.3099C1301.82 49.7999 1297.34 56.2799 1294.18 63.7499C1291.01 71.2199 1289.42 79.3699 1289.42 88.1999C1289.42 97.0299 1291 105.18 1294.18 112.65C1297.35 120.12 1301.79 126.6 1307.51 132.09C1313.22 137.58 1319.96 141.83 1327.72 144.83C1335.47 147.83 1343.88 149.33 1352.94 149.33C1362.79 149.33 1371.73 147.63 1379.77 144.24C1387.81 140.84 1394.6 135.92 1400.15 129.47L1385.89 115.89C1381.59 120.64 1376.78 124.18 1371.46 126.5C1366.14 128.82 1360.36 129.98 1354.14 129.98C1347.92 129.98 1342.23 128.96 1337.07 126.92C1331.92 124.88 1327.45 122 1323.66 118.26C1319.87 114.52 1316.92 110.11 1314.83 105.01C1312.73 99.9199 1311.69 94.3099 1311.69 88.1999C1311.69 82.0899 1312.74 76.4799 1314.83 71.3899C1316.92 66.2999 1319.87 61.8799 1323.66 58.1399L1323.65 58.1499Z" fill="white"/>
<path d="M1514.94 28.77L1461.45 147.63H1484.2L1495.97 120.12H1555.42L1567.23 147.63H1590.32L1536.66 28.77H1514.93H1514.94ZM1503.39 102.81L1525.65 50.79L1547.99 102.81H1503.39Z" fill="white"/>
<path d="M1750.8 36.24C1741.06 31.26 1729.74 28.77 1716.84 28.77H1664.88V147.63H1716.84C1729.75 147.63 1741.06 145.14 1750.8 140.16C1760.53 135.18 1768.12 128.25 1773.55 119.36C1778.98 110.47 1781.7 100.09 1781.7 88.2C1781.7 76.31 1778.98 65.79 1773.55 56.96C1768.12 48.13 1760.53 41.23 1750.8 36.24ZM1754.11 109.6C1750.54 115.71 1745.51 120.47 1739 123.86C1732.49 127.26 1724.76 128.95 1715.82 128.95H1686.95V47.45H1715.82C1724.76 47.45 1732.49 49.15 1739 52.54C1745.51 55.94 1750.55 60.66 1754.11 66.72C1757.68 72.78 1759.46 79.94 1759.46 88.2C1759.46 96.46 1757.68 103.48 1754.11 109.6Z" fill="white"/>
<path d="M1886.64 96.35H1944.04V78.18H1886.64V47.28H1951.34V28.77H1864.57V147.63H1953.71V129.13H1886.64V96.35Z" fill="white"/>
<path d="M2149.5 28.77L2103.11 107.54L2055.94 28.77H2037.77V147.63H2058.83V69.91L2097.88 134.05H2107.73L2146.8 68.88L2146.95 147.63H2167.84L2167.67 28.77H2149.5Z" fill="white"/>
<path d="M2357.17 28.77H2335.44L2300.31 86.6L2265.48 28.77H2241.87L2288.57 106.03V147.63H2310.65V105.75L2357.17 28.77Z" fill="white"/>
<path d="M78.4597 75.53L49.1797 53.87V97.2L78.4597 75.53Z" fill="#0482C1"/>
</g>
<defs>
<clipPath id="clip0_278_2372">
<rect width="2357.17" height="184.39" fill="white"/>
</clipPath>
</defs>
</svg>
